<?xml version="1.0" encoding="UTF-8"?>
<svg id="Layer_1" xmlns="http://www.w3.org/2000/svg" version="1.1" viewBox="0 0 1000 1000">
  <!-- Generator: Adobe Illustrator 29.5.1, SVG Export Plug-In . SVG Version: 2.1.0 Build 141)  -->
  <defs>
    <style>
      .st0 {
        fill: #040404;
      }
    </style>
  </defs>
  <path class="st0" d="M1000,499.99c0-133.55-52.01-259.11-146.45-353.54C759.11,52.01,633.54,0,499.99,0S240.89,52.01,146.44,146.45C52.01,240.89,0,366.44,0,499.99s52.01,259.12,146.44,353.55c94.45,94.45,220,146.45,353.55,146.45,99.75,0,195.05-29.01,276.25-83.06,14.61,9.17,31.91,14.47,50.44,14.47,52.53,0,95.12-42.59,95.12-95.12,0-17.54-4.76-34-13.05-48.1,59.3-83.72,91.24-183.48,91.24-288.19ZM890.34,765.61c-16.85-15.21-39.17-24.46-63.66-24.46-52.55,0-95.12,42.59-95.12,95.12,0,23.5,8.52,45.01,22.66,61.6-75.19,48.29-162.73,74.14-254.23,74.14-126.08,0-244.61-49.09-333.77-138.26C77.07,744.61,27.98,626.09,27.98,499.99s49.09-244.61,138.24-333.76C255.39,77.07,373.91,27.98,499.99,27.98s244.62,49.09,333.77,138.26c89.15,89.15,138.26,207.68,138.26,333.76,0,96.18-28.57,187.93-81.68,265.62Z"/>
  <circle class="st0" cx="499.99" cy="499.99" r="233"/>
</svg>