<?xml version="1.0" encoding="UTF-8"?>
<svg id="Layer_1" xmlns="http://www.w3.org/2000/svg" version="1.1" viewBox="0 0 1000 1000">
  <!-- Generator: Adobe Illustrator 29.5.1, SVG Export Plug-In . SVG Version: 2.1.0 Build 141)  -->
  <defs>
    <style>
      .st0 {
        fill: #fff;
      }
    </style>
  </defs>
  <g>
    <path class="st0" d="M195.62,933.18c-9.26,0-17.48-1.7-24.67-5.1-7.19-3.4-12.8-8.07-16.84-14.03-4.04-5.96-6.06-12.73-6.06-20.31,0-6.3,1.18-11.99,3.55-17.06,2.36-5.07,5.66-9.4,9.9-13,4.23-3.59,9.16-6.38,14.77-8.35,5.61-1.97,11.62-2.96,18.02-2.96,5.81,0,11.28.94,16.4,2.81,5.12,1.87,9.6,4.48,13.44,7.83,3.84,3.35,6.8,7.31,8.86,11.89,2.07,4.58,3.05,9.63,2.95,15.14l-.15,7.39h-74.9l-3.4-12.11h65.15l-2.22,1.62v-3.55c-.39-3.35-1.87-6.3-4.43-8.86-2.56-2.56-5.74-4.55-9.53-5.98-3.79-1.43-7.86-2.14-12.19-2.14-6.11,0-11.52.91-16.25,2.73-4.73,1.82-8.4,4.68-11.01,8.57-2.61,3.89-3.91,8.89-3.91,15,0,5.32,1.45,9.97,4.36,13.96,2.9,3.99,6.99,7.07,12.26,9.23,5.27,2.17,11.3,3.25,18.1,3.25,6.2,0,11.5-.86,15.88-2.58,4.38-1.72,8.3-3.86,11.74-6.43l7.09,11.23c-2.66,2.17-5.98,4.14-9.97,5.91-3.99,1.77-8.32,3.2-13,4.28-4.68,1.08-9.33,1.63-13.96,1.63Z"/>
    <path class="st0" d="M263.72,931.7l35.45-40.77,9.9,9.9-25.41,30.87h-19.94ZM334.63,931.7l-30.28-33.68-2.66-2.95-36.49-40.92h21.27l27.48,32.65,2.51,2.96,38.85,41.95h-20.68ZM317.35,894.62l-8.72-10.64,24.82-29.84h20.09l-36.19,40.48Z"/>
    <path class="st0" d="M423.86,933.18c-8.96,0-16.91-1.72-23.86-5.17-6.94-3.45-12.41-8.22-16.4-14.33-3.99-6.11-5.98-13.05-5.98-20.83s1.99-14.85,5.98-20.9,9.45-10.81,16.4-14.26c6.94-3.45,14.89-5.17,23.86-5.17s16.89,1.73,23.78,5.17c6.89,3.45,12.34,8.2,16.32,14.26,3.99,6.06,5.98,13.03,5.98,20.9s-1.99,14.72-5.98,20.83c-3.99,6.11-9.43,10.88-16.32,14.33-6.89,3.45-14.82,5.17-23.78,5.17ZM423.86,919.29c5.81,0,11.05-1.13,15.73-3.4,4.68-2.26,8.37-5.39,11.08-9.38,2.71-3.99,3.96-8.54,3.77-13.66.2-5.22-1.06-9.8-3.77-13.74-2.71-3.94-6.4-7.04-11.08-9.31-4.68-2.26-9.92-3.4-15.73-3.4s-11.06,1.13-15.73,3.4c-4.68,2.27-8.37,5.39-11.08,9.38-2.71,3.99-4.01,8.55-3.91,13.67-.1,5.12,1.2,9.68,3.91,13.66,2.71,3.99,6.4,7.12,11.08,9.38,4.68,2.27,9.92,3.4,15.73,3.4Z"/>
    <path class="st0" d="M537.9,933.18c-8.37,0-15.73-1.72-22.09-5.17-6.35-3.45-11.28-8.22-14.77-14.33-3.5-6.11-5.24-13.05-5.24-20.83s1.82-14.85,5.47-20.9c3.64-6.06,8.67-10.81,15.07-14.26,6.4-3.45,13.69-5.17,21.86-5.17,4.92,0,9.55.64,13.89,1.92,4.33,1.28,8.15,3.01,11.45,5.17,3.3,2.17,5.86,4.48,7.68,6.94,1.82,2.46,2.73,4.93,2.73,7.39l-4.43.3v-51.85h15.22v109.32h-15.22v-20.09l2.96.59c0,2.36-.96,4.75-2.88,7.17-1.92,2.41-4.48,4.68-7.68,6.79-3.2,2.12-6.89,3.82-11.08,5.1-4.19,1.28-8.49,1.92-12.93,1.92ZM540.71,919.59c5.81,0,10.93-1.18,15.36-3.55,4.43-2.36,7.88-5.56,10.34-9.6,2.46-4.04,3.69-8.57,3.69-13.59s-1.23-9.55-3.69-13.59c-2.46-4.04-5.91-7.21-10.34-9.53-4.43-2.31-9.55-3.47-15.36-3.47s-10.78,1.16-15.22,3.47c-4.43,2.32-7.9,5.49-10.41,9.53-2.51,4.04-3.77,8.57-3.77,13.59s1.26,9.55,3.77,13.59c2.51,4.04,5.98,7.24,10.41,9.6,4.43,2.36,9.5,3.55,15.22,3.55Z"/>
    <path class="st0" d="M634.36,933.33c-4.43,0-7.73-.99-9.9-2.96-2.17-1.97-3.25-4.68-3.25-8.12,0-2.96,1.11-5.54,3.32-7.76,2.22-2.22,5.49-3.32,9.82-3.32s7.58.99,9.75,2.95c2.17,1.97,3.25,4.68,3.25,8.13,0,2.95-1.11,5.54-3.32,7.76s-5.44,3.32-9.68,3.32Z"/>
    <path class="st0" d="M716.94,933.18c-6.3,0-11.79-1.45-16.47-4.36-4.68-2.9-8.32-7.07-10.93-12.48-2.61-5.41-3.91-11.87-3.91-19.35v-42.84h15.22v37.97c0,5.71.81,10.56,2.44,14.55s4.09,7.02,7.39,9.09c3.3,2.07,7.46,3.1,12.48,3.1,3.45,0,6.7-.57,9.75-1.7,3.05-1.13,5.74-2.73,8.05-4.8,2.31-2.07,4.14-4.58,5.47-7.53,1.33-2.96,1.99-6.2,1.99-9.75v-40.92h15.22v77.56h-15.22v-16.25l2.66-1.77c-1.28,3.25-3.5,6.38-6.65,9.38-3.15,3-7.07,5.44-11.74,7.31-4.68,1.87-9.92,2.81-15.73,2.81Z"/>
    <path class="st0" d="M835.57,933.18c-7.98,0-15.24-1.13-21.79-3.4-6.55-2.26-11.99-5.91-16.32-10.93l10.34-9.16c3.45,3.55,7.46,6.23,12.04,8.05,4.58,1.82,9.68,2.73,15.29,2.73,2.17,0,4.38-.15,6.65-.44,2.26-.29,4.36-.84,6.28-1.62,1.92-.79,3.45-1.82,4.58-3.1,1.13-1.28,1.7-2.81,1.7-4.58,0-2.96-1.97-5.22-5.91-6.79-1.97-.69-4.33-1.4-7.09-2.14-2.76-.74-5.91-1.45-9.45-2.14-5.91-1.28-11.08-2.66-15.51-4.14-4.43-1.48-8.03-3.4-10.78-5.76-2.07-1.87-3.64-4.01-4.73-6.43-1.08-2.41-1.63-5.19-1.63-8.35,0-3.45.89-6.52,2.66-9.23,1.77-2.71,4.21-5.07,7.31-7.09,3.1-2.02,6.72-3.55,10.86-4.58,4.14-1.04,8.62-1.55,13.44-1.55,4.23,0,8.54.44,12.93,1.33,4.38.89,8.54,2.27,12.48,4.14,3.94,1.87,7.24,4.19,9.9,6.94l-8.27,10.05c-2.36-1.87-5.07-3.57-8.13-5.1-3.05-1.53-6.18-2.71-9.38-3.55-3.2-.84-6.23-1.26-9.09-1.26-2.36,0-4.68.15-6.94.44-2.27.3-4.36.81-6.28,1.55-1.92.74-3.45,1.72-4.58,2.96-1.13,1.23-1.7,2.68-1.7,4.36.1,1.18.47,2.29,1.11,3.32.64,1.04,1.55,1.95,2.73,2.73,1.77,1.18,4.26,2.24,7.46,3.18,3.2.94,6.87,1.8,11.01,2.58,5.22.99,9.99,2.17,14.33,3.55,4.33,1.38,7.93,3.1,10.78,5.17,2.46,1.68,4.31,3.67,5.54,5.98,1.23,2.31,1.85,5,1.85,8.05,0,5.02-1.5,9.36-4.5,13-3.01,3.65-7.07,6.43-12.19,8.35-5.12,1.92-10.78,2.88-16.99,2.88Z"/>
  </g>
  <path class="st0" d="M869.25,427.27c0-96.32-37.51-186.87-105.62-254.97-68.1-68.12-158.66-105.62-254.98-105.62s-186.87,37.51-254.98,105.62c-68.1,68.1-105.61,158.65-105.61,254.97s37.51,186.88,105.61,254.98c68.12,68.12,158.66,105.62,254.98,105.62,71.94,0,140.67-20.93,199.23-59.9,10.54,6.61,23.01,10.43,36.38,10.43,37.89,0,68.6-30.72,68.6-68.6,0-12.65-3.43-24.52-9.41-34.69,42.76-60.38,65.8-132.33,65.8-207.84ZM790.16,618.83c-12.15-10.97-28.25-17.64-45.91-17.64-37.9,0-68.6,30.72-68.6,68.6,0,16.95,6.15,32.46,16.34,44.43-54.23,34.82-117.36,53.47-183.35,53.47-90.93,0-176.41-35.41-240.71-99.71-64.29-64.29-99.7-149.77-99.7-240.71s35.41-176.41,99.7-240.7c64.31-64.31,149.79-99.71,240.71-99.71s176.42,35.41,240.71,99.71c64.29,64.29,99.71,149.77,99.71,240.7,0,69.36-20.6,135.53-58.91,191.57Z"/>
  <circle class="st0" cx="508.64" cy="427.27" r="168.04"/>
</svg>